<svg width="24" height="24" viewBox="0 0 24 24" fill="none" xmlns="http://www.w3.org/2000/svg">
<path d="M10.4983 0.739435C10.6418 0.905754 10.7224 1.13121 10.7224 1.36627C10.7224 1.60134 10.6418 1.82679 10.4983 1.99311L2.61514 11.1237H23.234C23.4372 11.1237 23.632 11.2171 23.7757 11.3835C23.9193 11.5498 24 11.7754 24 12.0107C24 12.2459 23.9193 12.4716 23.7757 12.6379C23.632 12.8043 23.4372 12.8977 23.234 12.8977H2.61514L10.4983 22.0283C10.6336 22.1964 10.7073 22.4188 10.7038 22.6486C10.7003 22.8784 10.6199 23.0977 10.4796 23.2602C10.3392 23.4227 10.1499 23.5158 9.95146 23.5199C9.75302 23.5239 9.56097 23.4386 9.41576 23.2819L0.224013 12.6375C0.0805701 12.4712 0 12.2458 0 12.0107C0 11.7756 0.0805701 11.5502 0.224013 11.3839L9.41576 0.739435C9.55938 0.573322 9.75407 0.480019 9.95705 0.480019C10.16 0.480019 10.3547 0.573322 10.4983 0.739435Z" fill="#545454"/>
</svg>
