<svg width="46" height="40" viewBox="0 0 46 40" fill="none" xmlns="http://www.w3.org/2000/svg">
<path d="M16.8542 39.5C15.0989 39.5 13.6362 38.9843 12.466 37.953C11.2942 36.9188 10.7083 35.6289 10.7083 34.0833C10.7083 33.4247 10.6731 32.8729 10.6026 32.428C10.5322 31.9831 10.356 31.6379 10.0741 31.3923C9.79547 31.1439 9.40378 30.9749 8.899 30.8853C8.39422 30.7958 7.76817 30.7503 7.02083 30.7488C5.26558 30.7488 3.80287 30.2469 2.63271 29.243C1.4609 28.2391 0.875 26.9637 0.875 25.4167C0.875 23.8697 1.4609 22.5805 2.63271 21.5492C3.80451 20.5178 5.26722 20.0014 7.02083 20C7.67967 20 8.30408 20.0737 8.89408 20.221C9.48408 20.3683 9.98476 20.5893 10.3961 20.884C10.8386 21.1888 11.3508 21.3412 11.9326 21.3412C12.5144 21.3412 13.011 21.1606 13.4223 20.7995L23.7178 11.7255C24.1276 11.3644 24.3644 10.9058 24.4283 10.3497C24.4922 9.79356 24.3504 9.3075 24.003 8.8915C23.6998 8.50006 23.4564 8.05156 23.2729 7.546C23.0893 7.04044 22.9984 6.49733 23 5.91667C23 4.36967 23.5859 3.0805 24.7577 2.04917C25.9279 1.01639 27.3906 0.5 29.1458 0.5C30.9011 0.5 32.3646 1.01639 33.5364 2.04917C34.7082 3.08194 35.2933 4.37111 35.2917 5.91667C35.2917 6.57533 35.3269 7.12711 35.3974 7.572C35.4678 8.01689 35.644 8.36211 35.9259 8.60767C36.2045 8.85611 36.597 9.01139 37.1035 9.0735C37.6099 9.13561 38.2351 9.16667 38.9792 9.16667C40.7344 9.16667 42.1979 9.68306 43.3697 10.7158C44.5399 11.7472 45.125 13.0363 45.125 14.5833C45.125 16.1303 44.5399 17.4202 43.3697 18.453C42.1996 19.4858 40.7361 20.0014 38.9792 20C38.3203 20 37.7041 19.9198 37.1305 19.7595C36.5569 19.5992 36.048 19.3847 35.6039 19.116C35.1319 18.8387 34.596 18.7209 33.9961 18.7628C33.3979 18.8047 32.894 19.0062 32.4842 19.3673L22.2822 28.359C21.8724 28.7201 21.6356 29.1433 21.5717 29.6287C21.5078 30.114 21.6184 30.5798 21.9036 31.0262C22.174 31.4162 22.4247 31.8784 22.6558 32.4128C22.8853 32.9458 23 33.5027 23 34.0833C23 35.6303 22.4149 36.9202 21.2447 37.953C20.0713 38.9843 18.6078 39.5 16.8542 39.5Z" fill="white"/>
</svg>
