<svg width="33" height="34" viewBox="0 0 33 34" fill="none" xmlns="http://www.w3.org/2000/svg">
<path d="M16.5 0C7.38736 0 0 7.61122 0 17C0 26.3893 7.38736 34 16.5 34C25.6132 34 33 26.3893 33 17C33 7.61122 25.6132 0 16.5 0ZM16.5 31.9085C8.53927 31.9085 2.0625 25.202 2.0625 16.9999C2.0625 8.79796 8.53927 2.12493 16.5 2.12493C24.4607 2.12493 30.9375 8.798 30.9375 16.9999C30.9375 25.2019 24.4607 31.9085 16.5 31.9085ZM23.085 10.7796L13.4042 20.8165L9.04455 16.3248C8.64184 15.9099 7.98906 15.9099 7.58584 16.3248C7.18314 16.7397 7.18314 17.4123 7.58584 17.8272L12.69 23.0865C13.0927 23.5009 13.7455 23.5009 14.1487 23.0865C14.1951 23.0387 14.2349 22.9866 14.271 22.9325L24.5443 12.2825C24.9465 11.8676 24.9465 11.195 24.5443 10.7796C24.141 10.3647 23.4883 10.3647 23.085 10.7796Z" fill="#17181B"/>
</svg>
