<svg width="31" height="31" viewBox="0 0 31 31" fill="none" xmlns="http://www.w3.org/2000/svg">
<path d="M29.5345 30.7888L17.7933 19.0475C16.8558 19.8463 15.7776 20.4644 14.5589 20.9019C13.3401 21.3394 12.1151 21.5581 10.8839 21.5581C7.88139 21.5581 5.34014 20.5188 3.26014 18.44C1.18014 16.3613 0.140137 13.8206 0.140137 10.8181C0.140137 7.81565 1.17889 5.27377 3.25639 3.19252C5.33389 1.11127 7.87389 0.069399 10.8764 0.066899C13.8789 0.064399 16.4214 1.1044 18.5039 3.1869C20.5864 5.2694 21.6276 7.81127 21.6276 10.8125C21.6276 12.115 21.397 13.3756 20.9358 14.5944C20.4745 15.8131 19.8683 16.8556 19.117 17.7219L30.8583 29.4613L29.5345 30.7888ZM10.8858 19.6813C13.3733 19.6813 15.4733 18.825 17.1858 17.1125C18.8983 15.4 19.7545 13.2994 19.7545 10.8106C19.7545 8.3219 18.8983 6.2219 17.1858 4.51065C15.4733 2.7994 13.3733 1.94315 10.8858 1.9419C8.39826 1.94065 6.29764 2.7969 4.58389 4.51065C2.87014 6.2244 2.01389 8.3244 2.01514 10.8106C2.01639 13.2969 2.87264 15.3969 4.58389 17.1107C6.29514 18.8244 8.39514 19.6807 10.8839 19.6794" fill="#FF40A7"/>
</svg>
